<?xml version="1.0" encoding="utf-8"?>
<!-- Generator: Adobe Illustrator 26.5.0, SVG Export Plug-In . SVG Version: 6.00 Build 0)  -->
<svg version="1.1" id="Layer_1" xmlns="http://www.w3.org/2000/svg" xmlns:xlink="http://www.w3.org/1999/xlink" x="0px" y="0px"
	 viewBox="0 0 478 476" style="enable-background:new 0 0 478 476;" xml:space="preserve">
<style type="text/css">
	.st0{fill:#FFFFFF;}
</style>
<g>
	<path class="st0" d="M239,63.7c-17.9,0-32.9,14.6-32.9,32.5c0,3.1,1.2,6.1,3.4,8.3c2.2,2.2,5.1,3.4,8.2,3.4c3.1,0,6.1-1.2,8.3-3.4
		s3.4-5.2,3.4-8.3c0-5,4-9.1,9.6-9.1s9.6,4.1,9.6,9.1h0c0,3.1,1.2,6.1,3.4,8.3c2.2,2.2,5.1,3.4,8.2,3.4c3.1,0,6.1-1.2,8.3-3.4
		s3.4-5.2,3.4-8.3C271.9,78.2,256.9,63.7,239,63.7L239,63.7z"/>
	<path class="st0" d="M217.7,84.4c-3.1,0-6.1,1.2-8.2,3.4c-2.2,2.2-3.4,5.2-3.4,8.3v123.8c0,3.1,1.2,6.1,3.4,8.3
		c2.2,2.2,5.1,3.4,8.2,3.4c3.1,0,6.1-1.2,8.3-3.4s3.4-5.2,3.4-8.3V96.1c0-3.1-1.2-6.1-3.4-8.3S220.8,84.4,217.7,84.4L217.7,84.4z"/>
	<path class="st0" d="M260.2,84.3c-6.4,0-11.6,5.2-11.6,11.6v126.4c0,6.4,5.2,11.6,11.6,11.6c3.1,0,6.1-1.2,8.3-3.4
		c2.2-2.2,3.4-5.1,3.4-8.2V96c0-3.1-1.2-6.1-3.4-8.2C266.3,85.5,263.3,84.3,260.2,84.3L260.2,84.3z"/>
	<path class="st0" d="M281.5,108.7c-17.9,0-32.9,14.6-32.9,32.5v0c0,3.1,1.2,6.1,3.4,8.3c2.2,2.2,5.1,3.4,8.2,3.4
		c3.1,0,6.1-1.2,8.3-3.4s3.4-5.2,3.4-8.3c0-5,4-9.1,9.6-9.1s9.6,4.1,9.6,9.1h0c0,3.1,1.2,6.1,3.4,8.3c2.2,2.2,5.1,3.4,8.2,3.4
		c3.1,0,6.1-1.2,8.3-3.4s3.4-5.2,3.4-8.3C314.4,123.3,299.4,108.7,281.5,108.7L281.5,108.7z"/>
	<path class="st0" d="M175.4,121.6c-3.1,0-6.1,1.2-8.3,3.4c-2.2,2.2-3.4,5.2-3.4,8.3v93.8c0,3.1,1.2,6.1,3.4,8.2
		c2.2,2.2,5.2,3.4,8.3,3.4c6.4,0,11.6-5.2,11.6-11.6v-93.8c0-3.1-1.2-6.1-3.4-8.3C181.4,122.9,178.4,121.6,175.4,121.6L175.4,121.6z
		"/>
	<path class="st0" d="M196.5,101.8c-17.9,0-32.9,14.6-32.9,32.5v0c0,3.1,1.2,6.1,3.4,8.2c2.2,2.2,5.2,3.4,8.3,3.4
		c6.4,0,11.6-5.2,11.6-11.6c0-5,4-9.1,9.6-9.1s9.6,4.1,9.6,9.1h0c0,6.4,5.2,11.6,11.6,11.6c3.1,0,6.1-1.2,8.3-3.4
		c2.2-2.2,3.4-5.1,3.4-8.2C229.4,116.4,214.4,101.8,196.5,101.8L196.5,101.8z"/>
	<path class="st0" d="M302.7,129.6c-6.4,0-11.6,5.2-11.6,11.6v93.5v0c0,3.1,1.2,6.1,3.4,8.3c2.2,2.2,5.1,3.4,8.2,3.4
		c3.1,0,6.1-1.2,8.3-3.4s3.4-5.2,3.4-8.3v-93.5v0c0-3.1-1.2-6.1-3.4-8.2C308.7,130.8,305.7,129.5,302.7,129.6L302.7,129.6z"/>
	<path class="st0" d="M132.9,164.1c-3.1,0-6.1,1.2-8.3,3.4c-2.2,2.2-3.4,5.1-3.4,8.2v59c0,3.1,1.2,6.1,3.4,8.3s5.2,3.4,8.3,3.4
		c3.1,0,6.1-1.2,8.2-3.4c2.2-2.2,3.4-5.2,3.4-8.3v-59C144.5,169.3,139.3,164.1,132.9,164.1L132.9,164.1z"/>
	<path class="st0" d="M154.1,143.4c-17.9,0-32.9,14.6-32.9,32.5c0,3.1,1.2,6.1,3.4,8.2c2.2,2.2,5.2,3.4,8.3,3.4
		c6.4,0,11.6-5.2,11.6-11.6c0-5,4-9.1,9.6-9.1s9.6,4.1,9.6,9.1h0c0,3.1,1.2,6.1,3.4,8.2c2.2,2.2,5.2,3.4,8.3,3.4
		c6.4,0,11.6-5.2,11.6-11.6C187,158,172,143.4,154.1,143.4L154.1,143.4z"/>
	<path class="st0" d="M323.8,178c-17.9,0-32.8,14.6-32.8,32.5l0,0c0,6.4,5.2,11.6,11.6,11.6c3.1,0,6.1-1.2,8.3-3.4
		c2.2-2.2,3.4-5.1,3.4-8.2c0-5,3.9-9.1,9.5-9.1s9.6,4.1,9.6,9.1h0c0,3.1,1.2,6.1,3.4,8.2c2.2,2.2,5.2,3.4,8.3,3.4
		c6.4,0,11.6-5.2,11.6-11.6C356.7,192.6,341.7,178,323.8,178L323.8,178z"/>
	<path class="st0" d="M345.1,202.3c-3.1,0-6.1,1.2-8.3,3.4c-2.2,2.2-3.4,5.1-3.4,8.2v83.1c0,50.7-41.9,91.9-94.4,91.9
		c-52.5,0-94.5-41.2-94.5-91.9h0c0-6.4-5.2-11.6-11.6-11.6c-3.1,0-6.1,1.2-8.3,3.4c-2.2,2.2-3.4,5.1-3.4,8.2
		c0,63.6,53.1,115.2,117.8,115.2s117.7-51.6,117.7-115.2V214C356.7,207.5,351.5,202.4,345.1,202.3L345.1,202.3z"/>
	<path class="st0" d="M132.9,223.1c-3.1,0-6.1,1.2-8.3,3.4c-2.2,2.2-3.4,5.1-3.4,8.2v62.4c0,3.1,1.2,6.1,3.4,8.3s5.2,3.4,8.3,3.4
		c3.1,0,6.1-1.2,8.2-3.4c2.2-2.2,3.4-5.2,3.4-8.3v-62.4C144.5,228.3,139.3,223.1,132.9,223.1L132.9,223.1z"/>
	<path class="st0" d="M302.7,191.6c-6.4,0-11.6,5.2-11.6,11.6v66.4c0,6.4,5.2,11.6,11.6,11.6c3.1,0,6.1-1.2,8.3-3.4
		c2.2-2.2,3.4-5.1,3.4-8.2v-66.4c0-3.1-1.2-6.1-3.4-8.2C308.7,192.8,305.7,191.6,302.7,191.6L302.7,191.6z"/>
	<path class="st0" d="M301.6,258c-25.8,2.3-45.9,23.7-46,49.4c0,1.5,0,3.1,0.2,4.6c0.3,3.1,1.8,5.9,4.1,7.9c2.4,2,5.4,2.9,8.5,2.7
		c6.4-0.6,11.1-6.2,10.6-12.6c-0.1-0.8-0.1-1.6-0.1-2.4l0,0v-0.1c0-13.7,10.5-25.1,24.7-26.4c3.1-0.3,5.9-1.8,7.9-4.1
		c2-2.4,2.9-5.4,2.7-8.5C313.7,262.1,308,257.4,301.6,258L301.6,258z"/>
	<path class="st0" d="M156.7,4.7c-9.1,0-18,3.7-24.5,10.2L15.8,131.3c-6.5,6.5-10.1,15.2-10.1,24.4l0,164.8
		c0,9.1,3.6,17.9,10.1,24.4l116.4,116.5c6.5,6.5,15.3,10.1,24.5,10.1h164.7c9.1,0,17.9-3.6,24.4-10.1l116.5-116.5
		c6.5-6.5,10.1-15.2,10.1-24.4V155.7c0-9.1-3.6-17.9-10.1-24.4L345.7,14.8c-6.5-6.5-15.2-10.1-24.4-10.1L156.7,4.7L156.7,4.7z
		 M156.7,28h164.7c3,0,5.8,1.2,7.9,3.3l116.5,116.4c2.1,2.1,3.3,5,3.3,7.9v164.8c0,3-1.2,5.7-3.3,7.8L329.3,444.7
		c-2.1,2.1-5,3.3-7.9,3.3H156.7c-3,0-5.8-1.2-7.9-3.3L32.3,328.3c-2.1-2.1-3.3-4.9-3.3-7.8V155.7c0-3,1.2-5.8,3.3-7.9L148.7,31.3
		C150.8,29.2,153.7,28,156.7,28L156.7,28z"/>
</g>
</svg>
